# xmcd
#
# Track frame offsets:
#	150
#	15100
#	31287
#	48832
#	71742
#	89297
#	106107
#	118552
#	139547
#	171637
#	185610
#	208925
#	222265
#
# Disc length: 3174 seconds
#
# Revision: 1
# Processed by: cddbd v1.4PL0 Copyright (c) Steve Scherf et al.
# Submitted via: audiograbber 1.81.02
#
DISCID=b20c640d
DTITLE=Marva Wright - Blueshouse
DYEAR=1994
DGENRE=Blues
TTITLE0=Never Make Your Move To Soon
TTITLE1=Members Only
TTITLE2=See See Rider
TTITLE3=Driving Wheel
TTITLE4=Mama He Treats Your Daughter
TTITLE5=Bluesiana Mama
TTITLE6=Let The Good Times Roll
TTITLE7=The Boogie Song
TTITLE8=I'd Rather Go Blind
TTITLE9=Mojo Working
TTITLE10=Little Red Rooster
TTITLE11=Go Tell It On The Mountain
TTITLE12=Shake, Shake
EXTD=
EXTT0=
EXTT1=
EXTT2=
EXTT3=
EXTT4=
EXTT5=
EXTT6=
EXTT7=
EXTT8=
EXTT9=
EXTT10=
EXTT11=
EXTT12=
PLAYORDER=
